<svg width="615" height="541" viewBox="0 0 615 541" fill="none" xmlns="http://www.w3.org/2000/svg">
<g clip-path="url(#clip0_3_63)">
<path d="M315.318 276.252C305.728 276.252 296.53 272.428 289.749 265.621C282.968 258.815 279.158 249.583 279.158 239.958C279.158 230.332 282.968 221.1 289.749 214.294C296.53 207.487 305.728 203.664 315.318 203.664C315.492 203.664 315.662 203.674 315.835 203.677V161.062L315.47 160.695L315.095 161.071C308.291 154.32 300.185 149.036 291.275 145.541C282.364 142.047 272.835 140.416 263.274 140.749C253.713 141.082 244.32 143.371 235.672 147.477C227.023 151.583 219.302 157.418 212.98 164.626C206.659 171.833 201.871 180.261 198.91 189.391C195.949 198.522 194.877 208.164 195.76 217.725C196.644 227.286 199.464 236.566 204.047 244.994C208.631 253.423 214.881 260.823 222.415 266.741L308.731 353.376C309.286 353.932 309.992 354.311 310.761 354.466C311.53 354.62 312.327 354.543 313.052 354.243C313.777 353.944 314.397 353.435 314.835 352.782C315.273 352.13 315.508 351.361 315.511 350.574L315.835 276.239C315.662 276.241 315.492 276.252 315.318 276.252Z" fill="#BD2828"/>
<path d="M420.273 167.151C418.501 164.878 416.592 162.717 414.556 160.679C408.032 154.131 400.287 148.937 391.763 145.394C383.24 141.85 374.104 140.026 364.878 140.026C355.652 140.026 346.516 141.85 337.993 145.394C329.469 148.937 321.724 154.131 315.2 160.679C315.078 160.802 314.966 160.931 314.844 161.055L314.835 161.046V203.661C314.662 203.659 314.492 203.648 314.318 203.648C312.762 203.651 311.207 203.755 309.664 203.957C309.1 201.678 308.013 199.563 306.488 197.781C304.964 195.999 303.045 194.6 300.886 193.696C298.726 192.792 296.386 192.408 294.052 192.574C291.718 192.741 289.455 193.454 287.445 194.655C285.434 195.857 283.732 197.515 282.474 199.495C281.217 201.475 280.438 203.724 280.202 206.06C279.965 208.397 280.277 210.757 281.112 212.951C281.946 215.145 283.282 217.112 285.01 218.695C284.145 219.893 283.353 221.142 282.64 222.436C280.594 222.086 278.497 222.166 276.483 222.671C274.469 223.176 272.582 224.095 270.94 225.37C269.299 226.646 267.939 228.249 266.947 230.08C265.955 231.91 265.353 233.927 265.178 236.003C265.003 238.079 265.26 240.169 265.932 242.141C266.604 244.112 267.676 245.922 269.081 247.456C270.486 248.99 272.193 250.214 274.094 251.051C275.995 251.888 278.049 252.32 280.125 252.319C280.189 252.319 280.251 252.31 280.314 252.309C281.353 255.181 282.749 257.909 284.471 260.428C283.276 262.114 282.44 264.03 282.015 266.055C281.591 268.08 281.587 270.171 282.005 272.197C282.422 274.224 283.251 276.142 284.441 277.832C285.631 279.522 287.155 280.948 288.918 282.02C290.682 283.092 292.646 283.787 294.69 284.062C296.733 284.338 298.811 284.187 300.794 283.62C302.776 283.052 304.621 282.081 306.213 280.765C307.804 279.45 309.108 277.819 310.043 275.975C311.462 276.146 312.89 276.233 314.318 276.236C314.492 276.236 314.662 276.225 314.835 276.223V350.133C314.835 350.921 315.068 351.692 315.504 352.347C315.941 353.003 316.561 353.514 317.287 353.816C318.013 354.117 318.811 354.196 319.581 354.042C320.352 353.889 321.06 353.509 321.615 352.951L408.255 265.992C422.908 254.484 432.406 237.606 434.659 219.07C436.913 200.533 431.738 181.858 420.273 167.151Z" fill="#FFC7C7"/>
<path d="M555.744 521.881L545.558 521.723L541.314 482.218L556.347 482.45L555.744 521.881Z" fill="#FFB6B6"/>
<path d="M560.795 538.892L560.725 537.929L560.405 533.121L559.175 514.934L555.855 514.683L544.705 513.84L542.915 513.7L542.815 520.705L527.175 531.184C526.514 531.629 525.987 532.247 525.651 532.972C525.316 533.696 525.184 534.499 525.27 535.293C525.357 536.088 525.659 536.843 526.142 537.477C526.626 538.112 527.274 538.601 528.015 538.892C528.496 539.084 529.008 539.187 529.525 539.193L548.905 539.494L549.205 538.892L552.345 532.619L553.425 538.892L553.545 539.565L560.845 539.675L560.795 538.892Z" fill="#101010"/>
<path d="M576.542 508.842L568.511 515.13L540.521 487.031L552.374 477.748L576.542 508.842Z" fill="#FFB6B6"/>
<path d="M591.635 519.491L574.875 501.264L572.125 503.161L562.925 509.524L561.445 510.548L565.735 516.068L560.405 533.121L560.105 534.075C559.903 534.721 559.853 535.406 559.961 536.075C560.069 536.744 560.33 537.379 560.725 537.929C560.755 537.979 560.795 538.019 560.825 538.069C561.068 538.386 561.358 538.663 561.685 538.892C562.436 539.447 563.343 539.746 564.275 539.745C565.208 539.749 566.116 539.45 566.865 538.892C566.895 538.872 566.915 538.852 566.945 538.832L582.215 526.868L580.605 519.35L585.875 523.998L591.635 519.491Z" fill="#101010"/>
<path d="M584.396 261.533L571.47 213.514C570.917 211.482 569.589 209.749 567.774 208.69C565.958 207.631 563.801 207.331 561.767 207.854C560.75 208.116 559.794 208.577 558.953 209.21C558.113 209.842 557.405 210.635 556.87 211.542C556.335 212.45 555.984 213.454 555.836 214.498C555.687 215.541 555.745 216.604 556.006 217.626C556.041 217.763 556.08 217.9 556.122 218.035L571.073 267.502L578.895 297.944C577.755 298.817 576.912 300.021 576.478 301.392C576.044 302.763 576.041 304.235 576.47 305.608C576.899 306.981 577.738 308.188 578.874 309.065C580.01 309.942 581.388 310.447 582.82 310.511C584.252 310.576 585.668 310.196 586.878 309.423C588.087 308.651 589.03 307.524 589.579 306.195C590.128 304.866 590.256 303.4 589.946 301.995C589.635 300.591 588.902 299.316 587.844 298.345L584.396 261.533Z" fill="#FFB8B8"/>
<path d="M490.437 251.794L524.935 216.084C526.392 214.567 527.196 212.536 527.174 210.429C527.152 208.321 526.306 206.307 524.817 204.821C524.073 204.077 523.189 203.488 522.218 203.087C521.246 202.686 520.205 202.481 519.155 202.484C518.105 202.487 517.065 202.697 516.095 203.103C515.126 203.509 514.246 204.103 513.505 204.85C513.405 204.951 513.308 205.054 513.214 205.16L478.512 243.357L456.451 265.674C455.121 265.138 453.658 265.026 452.262 265.353C450.867 265.681 449.605 266.431 448.649 267.503C447.693 268.575 447.089 269.916 446.919 271.345C446.749 272.773 447.022 274.22 447.699 275.488C448.377 276.755 449.427 277.783 450.706 278.431C451.986 279.079 453.433 279.316 454.852 279.109C456.27 278.903 457.591 278.263 458.635 277.277C459.679 276.291 460.394 275.006 460.685 273.598L490.437 251.794Z" fill="#FFB8B8"/>
<path d="M515.944 259.091L522.74 289.306L567.038 286.527C562.412 270.934 560.796 267.787 564.273 256.935L515.944 259.091Z" fill="#FFB8B8"/>
<path d="M549.366 187.95H531.255L523.477 201.309L519.77 201.103C512.119 200.679 493.685 216.982 493.685 224.673L504.282 238.36L513.511 230.023C513.511 230.023 502.082 235.873 513.846 242.901C513.846 242.901 511.748 256.142 513.846 256C515.944 255.857 520.777 253.163 515.944 255.857C511.111 258.552 511.472 258.914 512.097 259.542L512.722 260.169L563.54 268.733C563.54 268.733 565.026 258.846 565.186 257.082C565.347 255.318 564.273 259.63 565.347 255.318C566.421 251.007 568.032 252.624 566.421 251.007C564.81 249.39 569.476 229.358 564.525 221.588L562.424 245.77L579.959 240.212C582.102 230.559 580.156 220.653 575.344 210.571C575.344 203.118 567.919 200.323 560.493 200.323H559.541L549.366 187.95Z" fill="#E6E6E6"/>
<path d="M568.778 283.704L570.311 300.781C570.311 300.781 587.522 317.921 581.685 339.918C575.849 361.916 564.981 421.84 564.981 421.84C564.981 421.84 570.766 476.031 558.541 499.561L540.159 495.885L529.177 422.365L524.167 338.759L520.213 315.012L522.74 287.453L568.778 283.704Z" fill="#101010"/>
<path d="M532.442 305.259L520.213 315.012L493.784 428.667L552.668 504.065L564.032 493.522L524.586 424.544L533.815 362.483L526.936 333.201L532.442 305.259Z" fill="#101010"/>
<path d="M514.168 162.703C520.362 173.413 508.698 191.46 520.453 195.208L519.485 194.236C512.389 185.475 527.22 166.933 520.125 158.173C519.022 156.888 518.076 155.476 517.305 153.966L514.168 162.703Z" fill="#101010"/>
<path d="M562.501 161.079C562.502 164.55 561.654 167.968 560.032 171.034C558.41 174.1 556.063 176.719 553.196 178.661C550.33 180.604 547.033 181.81 543.594 182.175C540.154 182.54 536.679 182.052 533.471 180.754C530.264 179.456 527.423 177.387 525.198 174.73C522.973 172.072 521.432 168.907 520.71 165.512C519.989 162.118 520.108 158.597 521.058 155.26C522.009 151.922 523.761 148.87 526.161 146.371L526.262 146.269C526.431 146.091 526.6 145.913 526.778 145.743C526.779 145.743 526.78 145.743 526.781 145.742C526.782 145.742 526.783 145.741 526.784 145.741C526.785 145.74 526.785 145.739 526.786 145.738C526.786 145.737 526.786 145.736 526.786 145.735C527.006 145.531 527.226 145.327 527.454 145.132C530.507 142.446 534.267 140.699 538.283 140.102C542.299 139.505 546.402 140.082 550.1 141.765C553.798 143.447 556.934 146.164 559.133 149.589C561.333 153.015 562.502 157.004 562.501 161.079Z" fill="#101010"/>
<path d="M536.168 183.767C545.952 183.767 553.884 175.806 553.884 165.985C553.884 156.165 545.952 148.203 536.168 148.203C526.383 148.203 518.451 156.165 518.451 165.985C518.451 175.806 526.383 183.767 536.168 183.767Z" fill="#FFB8B8"/>
<path d="M548.825 148.888C546.081 146.31 542.668 144.561 538.978 143.842C535.288 143.123 531.471 143.463 527.965 144.823C527.875 144.864 527.775 144.904 527.685 144.944C527.335 145.084 526.985 145.245 526.635 145.416L526.435 145.506V145.536L526.315 145.626C526.232 145.702 526.133 145.757 526.025 145.787C524.486 145.746 522.956 146.031 521.534 146.624C520.112 147.218 518.831 148.105 517.775 149.23C515.035 152.221 513.735 157.058 514.135 162.84L514.145 163.02L514.305 163.121C514.355 163.151 514.395 163.181 514.445 163.211C515.845 164.084 517.175 164.857 518.465 165.54C519.245 165.961 520.005 166.343 520.765 166.694L521.035 166.814C521.325 166.955 521.625 167.085 521.915 167.216C529.235 170.428 535.985 170.929 542.465 168.771L542.585 168.731L544.765 165.068L545.455 163.914C545.605 164.737 545.695 166.031 545.795 167.517C545.908 169.836 546.165 172.146 546.565 174.432V174.452C546.965 176.48 547.585 178.116 548.605 178.658C548.757 178.755 548.927 178.82 549.105 178.849L550.725 176.701L554.985 171.06L555.055 170.729C556.785 162.89 554.285 154.118 548.825 148.888Z" fill="#101010"/>
<path d="M618.835 179.812C615.245 184.59 605.845 192.669 600.575 195.46C600.045 195.741 599.515 196.002 598.975 196.242C599.503 194.978 599.605 193.575 599.265 192.248C598.663 190.658 597.689 189.236 596.425 188.103C593.175 184.68 589.922 181.261 586.665 177.845C588.854 180.755 590.41 184.093 591.233 187.644C592.057 191.195 592.129 194.88 591.445 198.461C588.729 198.868 585.963 198.786 583.275 198.22C577.455 196.955 572.115 193.001 569.805 187.49C567.835 182.833 568.115 177.544 568.745 172.525C569.375 167.507 570.345 162.428 569.645 157.42C568.955 152.401 566.205 147.313 561.515 145.446C561.747 145.636 561.936 145.874 562.068 146.144C562.201 146.413 562.274 146.708 562.284 147.009C562.293 147.309 562.238 147.608 562.123 147.886C562.008 148.163 561.835 148.413 561.615 148.617C560.906 149.228 559.988 149.538 559.055 149.481C558.764 149.483 558.472 149.459 558.185 149.41C554.455 148.818 551.725 145.687 549.345 142.736C548.743 142.651 548.176 142.402 547.705 142.016C547.234 141.631 546.878 141.123 546.675 140.548C546.45 139.942 546.45 139.276 546.675 138.671C546.909 138.206 547.253 137.807 547.678 137.508C548.102 137.21 548.594 137.021 549.109 136.96C549.623 136.898 550.146 136.965 550.628 137.155C551.111 137.345 551.539 137.652 551.875 138.049C551.524 136.619 551.485 135.131 551.759 133.684C552.034 132.238 552.615 130.868 553.465 129.668C554.314 128.468 555.411 127.466 556.681 126.73C557.951 125.993 559.365 125.541 560.825 125.402C565.135 124.991 571.985 124.338 574.835 127.62C579.285 132.759 586.115 137.908 586.835 144.683C587.545 151.448 591.275 150.103 592.835 156.727C594.395 163.362 600.805 165.65 606.835 168.771C613.575 172.264 612.645 184.228 618.835 179.812Z" fill="#101010"/>
<path d="M544.631 164.836C550.825 175.547 539.161 193.593 550.917 197.341L549.948 196.369C542.852 187.608 557.684 169.066 550.588 160.306C549.485 159.021 548.539 157.609 547.768 156.099L544.631 164.836Z" fill="#101010"/>
<path d="M554.227 170.562C552.192 164.401 548.541 158.903 543.66 154.645C538.778 150.387 532.845 147.526 526.482 146.362C526.457 146.354 526.372 146.32 526.262 146.269C526.195 146.226 526.11 146.184 526.026 146.142C526.279 145.997 526.524 145.87 526.778 145.743C526.779 145.743 526.78 145.743 526.781 145.742C526.782 145.742 526.783 145.741 526.784 145.741C526.785 145.74 526.785 145.739 526.786 145.738C526.786 145.737 526.786 145.736 526.786 145.735C527.006 145.531 527.226 145.327 527.454 145.132L528.096 145.158C528.096 145.158 550.669 141.57 554.227 170.562Z" fill="#FD6584"/>
<path d="M201.123 216.765C200.888 218.442 200.01 219.962 198.676 221C197.342 222.038 195.657 222.513 193.98 222.323C193.639 222.279 193.303 222.207 192.975 222.107L164.835 256.334L155.835 244.289L189.012 213.77C189.529 212.435 190.472 211.309 191.694 210.569C192.915 209.828 194.347 209.514 195.765 209.675C196.571 209.775 197.349 210.033 198.056 210.435C198.763 210.837 199.384 211.374 199.883 212.017C200.383 212.66 200.752 213.395 200.968 214.18C201.185 214.966 201.245 215.787 201.146 216.596C201.139 216.652 201.131 216.708 201.123 216.765Z" fill="#A0616A"/>
<path d="M117.865 210.074C117.865 210.074 136.645 207.934 140.645 216.968C144.645 226.001 154.725 244.81 154.725 244.81C154.725 244.81 149.556 247.02 154.835 241.278C157.201 238.705 152.835 240.274 155.835 239.271C158.835 238.267 159.835 239.271 159.835 239.271L169.835 256.333C169.835 256.333 169.031 260.222 163.835 260.348C158.639 260.475 166.835 255.33 159.835 262.356C156.221 265.983 153.771 264.604 153.771 264.604L109.55 240.044L117.865 210.074Z" fill="#101010"/>
<path d="M32.0612 344.888C33.2613 343.697 33.9508 342.082 33.983 340.388C34.0153 338.694 33.3877 337.055 32.2338 335.818C31.9953 335.57 31.7368 335.343 31.4609 335.138L44.8351 286.444L28.8351 279.418L22.4328 336.931C21.6751 338.145 21.3391 339.576 21.4772 341.002C21.6153 342.428 22.2198 343.768 23.1963 344.812C23.7576 345.401 24.4291 345.874 25.1723 346.202C25.9155 346.531 26.7159 346.709 27.5278 346.728C28.3398 346.746 29.1473 346.603 29.9043 346.308C30.6614 346.013 31.3531 345.571 31.94 345.008C31.9809 344.968 32.0213 344.929 32.0612 344.888Z" fill="#A0616A"/>
<path d="M68.5138 204.706C68.5138 204.706 60.4607 192.864 46.6969 208.249C32.9331 223.634 28.6418 263.758 29.2874 266.279C29.9331 268.8 33.5628 267.354 29.2479 271.59C24.9331 275.826 21.9331 272.815 24.9331 275.826C27.9331 278.837 26.9656 283.344 21.835 284.437C16.7044 285.529 43.8911 289.868 43.8911 289.868C43.8911 289.868 46.7993 288.802 46.9221 281.769C46.9911 277.819 44.9911 275.812 47.9911 274.808C50.9911 273.804 47.3021 267.102 47.6176 265.943C47.9331 264.785 60.9331 243.708 60.9331 243.708L68.5138 204.706Z" fill="#101010"/>
<path d="M87.66 529.479L97.561 529.478L102.271 491.147L87.658 491.148L87.66 529.479Z" fill="#A0616A"/>
<path d="M87.3112 539.845L117.758 539.844V539.458C117.758 536.303 116.509 533.278 114.287 531.047C112.065 528.817 109.05 527.564 105.907 527.563L100.345 523.329L89.9686 527.564L87.3107 527.564L87.3112 539.845Z" fill="#101010"/>
<path d="M44.66 529.479L54.561 529.478L59.271 491.147L44.658 491.148L44.66 529.479Z" fill="#A0616A"/>
<path d="M44.3112 539.845L74.7582 539.844V539.458C74.758 536.303 73.5093 533.278 71.2869 531.047C69.0645 528.817 66.0503 527.564 62.9074 527.563L57.3451 523.329L46.9686 527.564L44.3107 527.564L44.3112 539.845Z" fill="#101010"/>
<path d="M116.991 321.437C116.991 321.437 128.262 337.207 120.126 364.451C111.991 391.695 122.558 416.053 120.275 420.937C117.991 425.821 113.394 430.459 117.193 434.162C120.991 437.865 122.991 440.876 119.991 441.88C116.991 442.884 100.991 513.142 100.991 513.142L83.9912 514.146C83.9912 514.146 77.8327 481.509 84.412 455.17C84.412 455.17 82.9677 436.05 85.9794 430.434C88.9911 424.817 88.4006 429.883 88.1959 422.834C88.0827 417.735 87.3421 412.671 85.9911 407.755C84.9911 403.74 84.4119 363.276 84.4119 363.276L74.3115 417.273C73.6476 419.123 73.3984 421.097 73.5817 423.055C73.9912 425.821 73.9947 429.954 73.4929 431.401C72.9911 432.847 72.4323 433.151 72.7117 436.01C72.9911 438.869 60.9911 510.675 60.9911 510.675H41.9911L32.9911 434.854C34.6102 433.054 35.9579 431.025 36.9911 428.832C38.9911 424.817 39.069 424.596 38.0301 421.696C36.9912 418.795 36.9911 413.144 36.9911 411.453C36.9911 409.762 35.9522 332.983 48.9717 321.69C61.9911 310.397 116.991 321.437 116.991 321.437Z" fill="#101010"/>
<path d="M58.6447 200.909L77.6253 195.972L86.4853 183.707L107.527 186.303L112.006 203.033L126.985 211.76C126.985 211.76 118.706 299.655 120.675 304.481C122.645 309.307 117.866 313.345 111.835 319.566C105.804 325.787 116.846 318.846 118.245 325.619C119.645 332.392 129.846 339.56 118.245 339.489C106.645 339.418 42.835 342.651 44.835 334.621C46.835 326.592 40.6132 324.394 43.629 319.36C46.6448 314.326 48.6744 317.139 47.6596 309.71C46.6448 302.281 47.6448 297.263 47.6448 293.248C47.6448 289.233 50.9953 252.751 50.9953 252.751L58.6447 200.909Z" fill="#E6E6E6"/>
<path d="M100.164 181.608C112.898 181.608 123.22 171.247 123.22 158.467C123.22 145.687 112.898 135.326 100.164 135.326C87.4311 135.326 77.1087 145.687 77.1087 158.467C77.1087 171.247 87.4311 181.608 100.164 181.608Z" fill="#A0616A"/>
<path d="M84.9912 176.446C90.4412 172.171 82.9912 153.362 91.9912 157.376C91.9912 157.376 102.991 150.35 105.201 154.967C107.76 160.313 116.861 157.888 122.451 156.001C122.012 154.976 121.699 153.901 121.521 152.799C122.553 153.615 123.646 154.35 124.791 154.998C125.559 154.586 126.238 154.026 126.791 153.351C127.336 152.725 127.678 151.945 127.769 151.118C127.86 150.291 127.697 149.456 127.301 148.724C126.371 147.289 124.451 146.848 123.321 145.573C123.191 145.394 123.105 145.185 123.073 144.966C123.04 144.746 123.061 144.522 123.133 144.312C123.268 143.799 123.289 143.263 123.193 142.741C123.098 142.22 122.889 141.725 122.581 141.294C122.274 140.863 121.875 140.505 121.414 140.246C120.953 139.987 120.441 139.833 119.914 139.795C119.702 139.802 119.491 139.756 119.301 139.661C118.352 139.078 117.476 138.384 116.691 137.594C118.005 137.657 119.323 137.62 120.631 137.483C120.901 137.453 121.171 137.423 121.441 137.383C120.941 136.205 120.193 135.149 119.249 134.289C118.305 133.428 117.187 132.781 115.971 132.394C113.404 131.616 110.733 131.24 108.051 131.28C106.501 131.23 104.951 131.18 103.411 131.13C100.145 130.897 96.8633 131.011 93.6211 131.471C90.1578 132.105 86.8768 133.499 84.0124 135.554C81.1481 137.608 78.771 140.272 77.0511 143.355C73.6611 149.527 69.9912 169.421 84.9912 176.446Z" fill="#101010"/>
<path d="M126.835 339.64C130.455 346.124 110.065 348.031 87.975 347.157C87.5478 345.516 86.8407 343.96 85.885 342.561C83.445 339.007 86.395 314.969 82.835 312.54C84.445 316.455 77.935 342.47 76.575 346.475C56.595 344.869 38.385 341.226 38.605 336.89C38.665 335.625 42.835 311.536 44.855 309.71C46.865 307.883 44.835 273.396 44.855 265.999C44.865 258.592 55.835 204.142 55.835 202.134C55.835 200.127 81.835 190.09 81.835 190.09L92.835 253.322L109.555 193.864C111.19 196.095 113.08 198.126 115.185 199.916C118.535 202.716 131.835 214.179 131.835 214.179L120.445 298.77C120.445 298.77 125.835 311.536 125.555 316.605C125.447 320.627 124.659 324.601 123.225 328.358C121.605 333.126 121.775 330.566 126.835 339.64Z" fill="#101010"/>
<path d="M315.835 252.319C324.119 252.319 330.835 245.578 330.835 237.263C330.835 228.949 324.119 222.208 315.835 222.208C307.551 222.208 300.835 228.949 300.835 237.263C300.835 245.578 307.551 252.319 315.835 252.319Z" fill="#BD2828"/>
<path d="M322.335 235.256H317.835V230.739C317.835 230.207 317.624 229.696 317.249 229.32C316.874 228.944 316.365 228.732 315.835 228.732C315.305 228.732 314.796 228.944 314.421 229.32C314.046 229.696 313.835 230.207 313.835 230.739V235.256H309.335C308.805 235.256 308.296 235.468 307.921 235.844C307.546 236.22 307.335 236.731 307.335 237.263C307.335 237.796 307.546 238.306 307.921 238.683C308.296 239.059 308.805 239.271 309.335 239.271H313.835V243.787C313.835 244.32 314.046 244.83 314.421 245.207C314.796 245.583 315.305 245.795 315.835 245.795C316.365 245.795 316.874 245.583 317.249 245.207C317.624 244.83 317.835 244.32 317.835 243.787V239.271H322.335C322.865 239.271 323.374 239.059 323.749 238.683C324.124 238.306 324.335 237.796 324.335 237.263C324.335 236.731 324.124 236.22 323.749 235.844C323.374 235.468 322.865 235.256 322.335 235.256Z" fill="#FFC7C7"/>
<path d="M563.905 281.405C562.133 279.132 560.224 276.971 558.188 274.933C551.664 268.385 543.919 263.191 535.395 259.647C526.872 256.104 517.736 254.28 508.51 254.28C499.284 254.28 490.149 256.104 481.625 259.647C473.101 263.191 465.356 268.385 458.833 274.933C458.71 275.056 458.598 275.185 458.476 275.309L458.467 275.3V317.915C458.294 317.912 458.124 317.902 457.951 317.902C456.394 317.905 454.839 318.008 453.296 318.211C452.732 315.932 451.645 313.817 450.12 312.035C448.596 310.253 446.677 308.854 444.518 307.95C442.358 307.046 440.018 306.661 437.684 306.828C435.35 306.995 433.087 307.707 431.077 308.909C429.066 310.111 427.364 311.768 426.106 313.749C424.849 315.729 424.07 317.978 423.834 320.314C423.597 322.651 423.909 325.01 424.744 327.204C425.579 329.398 426.914 331.366 428.642 332.949C427.777 334.146 426.985 335.396 426.272 336.69C424.226 336.339 422.129 336.419 420.115 336.924C418.102 337.43 416.214 338.349 414.572 339.624C412.931 340.9 411.571 342.503 410.579 344.334C409.587 346.164 408.985 348.181 408.81 350.257C408.635 352.333 408.892 354.423 409.564 356.395C410.236 358.366 411.308 360.176 412.713 361.71C414.118 363.243 415.826 364.468 417.727 365.305C419.628 366.142 421.681 366.573 423.757 366.573C423.821 366.573 423.883 366.564 423.946 366.563C424.985 369.435 426.381 372.163 428.103 374.682C426.908 376.368 426.072 378.283 425.647 380.308C425.223 382.333 425.219 384.424 425.637 386.451C426.054 388.477 426.884 390.396 428.073 392.086C429.263 393.776 430.787 395.201 432.55 396.273C434.314 397.346 436.278 398.041 438.322 398.316C440.365 398.592 442.443 398.441 444.426 397.874C446.408 397.306 448.253 396.334 449.845 395.019C451.436 393.704 452.74 392.073 453.675 390.229C455.094 390.4 456.522 390.487 457.951 390.49C458.124 390.49 458.294 390.479 458.467 390.477V464.387C458.467 465.175 458.7 465.946 459.136 466.601C459.573 467.257 460.193 467.768 460.919 468.069C461.645 468.371 462.443 468.45 463.214 468.296C463.984 468.142 464.692 467.763 465.247 467.205L551.887 380.246C566.54 368.738 576.038 351.86 578.291 333.324C580.545 314.787 575.37 296.112 563.905 281.405Z" fill="#BD2828"/>
<path d="M459.598 369.504C467.882 369.504 474.598 362.763 474.598 354.449C474.598 346.134 467.882 339.393 459.598 339.393C451.313 339.393 444.598 346.134 444.598 354.449C444.598 362.763 451.313 369.504 459.598 369.504Z" fill="#FFC7C7"/>
<path d="M466.098 352.441H461.598V347.925C461.598 347.392 461.387 346.882 461.012 346.505C460.637 346.129 460.128 345.917 459.598 345.917C459.067 345.917 458.558 346.129 458.183 346.505C457.808 346.882 457.598 347.392 457.598 347.925V352.441H453.098C452.567 352.441 452.058 352.653 451.683 353.029C451.308 353.406 451.098 353.916 451.098 354.449C451.098 354.981 451.308 355.492 451.683 355.868C452.058 356.244 452.567 356.456 453.098 356.456H457.598V360.973C457.598 361.505 457.808 362.016 458.183 362.392C458.558 362.768 459.067 362.98 459.598 362.98C460.128 362.98 460.637 362.768 461.012 362.392C461.387 362.016 461.598 361.505 461.598 360.973V356.456H466.098C466.628 356.456 467.137 356.244 467.512 355.868C467.887 355.492 468.098 354.981 468.098 354.449C468.098 353.916 467.887 353.406 467.512 353.029C467.137 352.653 466.628 352.441 466.098 352.441Z" fill="#BD2828"/>
</g>
<defs>
<clipPath id="clip0_3_63">
<rect width="615" height="541" fill="white"/>
</clipPath>
</defs>
</svg>
