<svg width="183" height="89" viewBox="0 0 183 89" fill="none" xmlns="http://www.w3.org/2000/svg">
<g filter="url(#filter0_d_3_190)">
<g clip-path="url(#clip0_3_190)">
<path d="M43.5516 54.6724C22.759 46.9942 29.9293 12.8823 44.5736 32.1867C53.3262 17.1227 65.5177 27.5534 54.2143 42.5934" stroke="url(#paint0_linear_3_190)" stroke-width="1.5"/>
<path d="M53.6999 42.7645C53.6953 42.9767 53.8448 43.1441 54.0339 43.1384L57.1157 43.0452C57.3048 43.0395 57.4619 42.8628 57.4665 42.6506C57.4711 42.4384 57.3216 42.271 57.1325 42.2767L54.3931 42.3596L54.4601 39.2858C54.4647 39.0736 54.3152 38.9062 54.1261 38.9119C53.937 38.9176 53.7799 39.0943 53.7753 39.3065L53.6999 42.7645ZM54.0292 42.2388L53.8061 42.4898L54.2785 43.0185L54.5016 42.7675L54.0292 42.2388Z" fill="url(#paint1_linear_3_190)"/>
</g>
<path d="M81.224 54V31.12H91.848V32.464H82.76V40.88H90.984V42.192H82.76V52.656H92.2V54H81.224ZM97.965 54V33.328C99.7997 33.1787 101.357 33.104 102.637 33.104C104.6 33.104 106.221 33.616 107.501 34.64C108.781 35.6427 109.421 37.0827 109.421 38.96C109.421 40.2187 109.058 41.3813 108.333 42.448C107.608 43.5147 106.786 44.3787 105.869 45.04C108.408 48.4107 109.976 50.4267 110.573 51.088C111.789 52.3467 113.112 53.0613 114.541 53.232L114.509 54.224C113.314 54.2027 112.344 54.032 111.597 53.712C110.85 53.3707 110.104 52.8053 109.357 52.016C108.632 51.2267 107.021 49.104 104.525 45.648C102.797 45.648 101.101 45.5947 99.437 45.488V54H97.965ZM103.725 44.432C104.557 44.432 105.453 43.8773 106.413 42.768C107.373 41.6587 107.853 40.368 107.853 38.896C107.853 37.424 107.352 36.304 106.349 35.536C105.346 34.768 104.045 34.384 102.445 34.384C101.592 34.384 100.589 34.4267 99.437 34.512V44.272C100.973 44.3787 102.402 44.432 103.725 44.432ZM125.837 54.32C122.871 54.32 120.386 53.2853 118.381 51.216C116.375 49.1467 115.373 46.6187 115.373 43.632C115.373 40.624 116.375 38.0853 118.381 36.016C120.386 33.9467 122.871 32.912 125.837 32.912C128.802 32.912 131.287 33.9467 133.293 36.016C135.298 38.0853 136.301 40.624 136.301 43.632C136.301 46.6187 135.298 49.1467 133.293 51.216C131.287 53.2853 128.802 54.32 125.837 54.32ZM125.837 34.224C123.277 34.224 121.143 35.1307 119.437 36.944C117.751 38.7573 116.909 40.9867 116.909 43.632C116.909 46.256 117.751 48.4747 119.437 50.288C121.143 52.08 123.277 52.976 125.837 52.976C128.418 52.976 130.551 52.08 132.237 50.288C133.922 48.4747 134.765 46.256 134.765 43.632C134.765 40.9867 133.922 38.7573 132.237 36.944C130.551 35.1307 128.418 34.224 125.837 34.224ZM146.907 34.128C145.755 34.128 144.816 34.4053 144.091 34.96C143.366 35.5147 143.003 36.2933 143.003 37.296C143.003 38.448 143.483 39.4827 144.443 40.4C145.126 41.0613 146 41.7653 147.067 42.512C148.155 43.2373 148.902 43.76 149.307 44.08C149.712 44.4 150.203 44.8373 150.779 45.392C151.824 46.4373 152.347 47.6427 152.347 49.008C152.347 50.7787 151.75 52.1227 150.555 53.04C149.382 53.936 147.728 54.384 145.595 54.384C143.483 54.384 141.712 53.8293 140.283 52.72L141.051 51.6C142.502 52.5813 144.038 53.072 145.659 53.072C147.28 53.072 148.539 52.7307 149.435 52.048C150.352 51.3653 150.811 50.4053 150.811 49.168C150.811 48.1013 150.352 47.12 149.435 46.224C148.795 45.584 147.931 44.8907 146.843 44.144C145.776 43.3973 145.03 42.864 144.603 42.544C144.176 42.2027 143.675 41.7547 143.099 41.2C142.011 40.112 141.467 38.8533 141.467 37.424C141.467 35.9947 141.968 34.8747 142.971 34.064C143.995 33.2533 145.403 32.848 147.195 32.848C148.987 32.848 150.598 33.2 152.027 33.904L151.483 35.088C150.16 34.448 148.635 34.128 146.907 34.128Z" fill="url(#paint2_linear_3_190)"/>
</g>
<defs>
<filter id="filter0_d_3_190" x="0" y="-2" width="185" height="91" filterUnits="userSpaceOnUse" color-interpolation-filters="sRGB">
<feFlood flood-opacity="0" result="BackgroundImageFix"/>
<feColorMatrix in="SourceAlpha" type="matrix" values="0 0 0 0 0 0 0 0 0 0 0 0 0 0 0 0 0 0 127 0" result="hardAlpha"/>
<feOffset dy="4"/>
<feGaussianBlur stdDeviation="15"/>
<feComposite in2="hardAlpha" operator="out"/>
<feColorMatrix type="matrix" values="0 0 0 0 0.741667 0 0 0 0 0.157604 0 0 0 0 0.157604 0 0 0 0.5 0"/>
<feBlend mode="normal" in2="BackgroundImageFix" result="effect1_dropShadow_3_190"/>
<feBlend mode="normal" in="SourceGraphic" in2="effect1_dropShadow_3_190" result="shape"/>
</filter>
<linearGradient id="paint0_linear_3_190" x1="26.2043" y1="22.5466" x2="52.703" y2="52.3576" gradientUnits="userSpaceOnUse">
<stop stop-color="#FE4343"/>
<stop offset="1" stop-color="#D71E61"/>
</linearGradient>
<linearGradient id="paint1_linear_3_190" x1="53.2765" y1="38.3846" x2="55.8521" y2="43.5907" gradientUnits="userSpaceOnUse">
<stop stop-color="#FE4343"/>
<stop offset="1" stop-color="#D71E61"/>
</linearGradient>
<linearGradient id="paint2_linear_3_190" x1="64.832" y1="23.8462" x2="78.6719" y2="69.7646" gradientUnits="userSpaceOnUse">
<stop stop-color="#FE4343"/>
<stop offset="1" stop-color="#D71E61"/>
</linearGradient>
<clipPath id="clip0_3_190">
<rect width="30" height="31" fill="white" transform="translate(30 24)"/>
</clipPath>
</defs>
</svg>
