<svg width="761" height="667" viewBox="0 0 761 667" fill="none" xmlns="http://www.w3.org/2000/svg">
<path d="M760.809 664.173C757.279 657.458 747.506 654.334 741.177 651.952C727.104 646.657 712.379 643.201 697.759 640.058C676.862 635.566 655.773 632.064 634.647 629C608.857 625.259 582.977 622.22 557.058 619.67C527.748 616.786 498.391 614.513 468.987 612.851C437.862 611.066 406.71 609.934 375.533 609.456C344.181 608.993 312.816 609.226 281.479 610.349C251.477 611.425 221.49 613.307 191.612 616.397C164.624 619.188 137.69 622.933 111.063 628.369C88.2754 633.021 65.5946 638.864 43.7699 647.249C39.2095 649.001 34.6959 650.878 30.229 652.88L32.3341 654.581C40.4215 633.74 49.3261 608.28 36.6911 587.227C31.816 579.104 23.0294 572.055 13.4142 573.348C5.62204 574.396 -2.04535 582.739 0.495966 591.414C2.69508 598.92 12.6567 602.374 18.1495 596.737C18.3429 596.524 18.4733 596.256 18.5247 595.966C18.5761 595.677 18.5463 595.378 18.439 595.106C18.3317 594.833 18.1514 594.6 17.9201 594.433C17.6889 594.267 17.4165 594.174 17.1362 594.167C6.78695 595.034 3.53582 608.072 6.95411 616.914C12.2522 630.618 29.8784 630.674 41.5009 629.206C43.3094 628.977 43.3313 625.963 41.5009 626.195C31.6152 627.444 17.171 628.205 10.8182 618.222C6.60396 611.6 7.85878 597.955 17.1362 597.178L16.1229 594.608C12.9795 597.834 7.88916 596.772 5.02065 593.619C1.15407 589.37 3.22323 582.972 7.01831 579.498C16.4272 570.887 29.2711 580.207 34.5169 589.248C46.2788 609.519 37.2822 633.907 29.5704 653.78C29.0348 655.16 30.6892 655.922 31.6755 655.48C51.9389 646.41 73.2862 640.096 94.744 635.025C120.319 629.13 146.171 624.649 172.193 621.6C201.21 618.039 230.365 615.757 259.544 614.3C290.225 612.767 320.945 612.161 351.659 612.254C382.722 612.347 413.774 613.131 444.815 614.606C474.549 615.991 504.252 617.968 533.922 620.538C560.652 622.863 587.348 625.681 613.965 629.161C636.488 632.106 658.969 635.507 681.301 639.781C697.752 642.93 714.218 646.448 730.271 651.414C738.794 654.051 749.237 656.843 756.141 663.047C757.025 663.774 757.769 664.672 758.334 665.692C759.226 667.389 761.702 665.872 760.809 664.173Z" fill="#BD2828"/>
<path d="M430.72 151.768L489.808 187.294C492.315 188.792 495.283 189.193 498.07 188.412C500.857 187.631 503.24 185.731 504.704 183.12C505.462 181.77 505.95 180.272 506.139 178.717C506.327 177.162 506.212 175.583 505.801 174.076C505.39 172.569 504.691 171.166 503.746 169.952C502.802 168.738 501.632 167.739 500.309 167.016L437.854 132.09L400.755 109.187C401.014 107.136 400.665 105.051 399.756 103.216C398.847 101.381 397.423 99.8842 395.676 98.9291C393.93 97.974 391.946 97.6069 389.993 97.8777C388.041 98.1485 386.216 99.0441 384.765 100.443C383.314 101.841 382.309 103.675 381.884 105.695C381.46 107.716 381.639 109.824 382.395 111.734C383.151 113.644 384.448 115.263 386.111 116.371C387.774 117.479 389.721 118.023 391.688 117.929L430.72 151.768Z" fill="#FFB6B6"/>
<path d="M474.66 185.759C474.832 186.482 475.225 187.126 475.779 187.592C476.333 188.058 477.018 188.319 477.727 188.337C478.602 188.376 479.443 188.701 480.134 189.267C480.266 189.378 480.391 189.498 480.509 189.626C481.198 190.417 482.058 191.021 483.018 191.388C483.977 191.755 485.006 191.873 486.017 191.732C489.341 191.218 493.217 192.428 496.424 193.933C499.933 195.58 503.411 197.451 507.193 198.168C512.65 199.201 519.079 197.429 520.605 190.359C521.21 187.342 520.806 184.197 519.462 181.456C516.724 175.686 511.377 172.212 506.232 168.94L508.871 169.19C503.192 165.719 498.238 161.078 494.308 155.547C493.789 157.009 491.581 156.861 490.625 155.667C489.669 154.474 489.558 152.8 489.304 151.263C488.983 149.327 488.111 147.132 485.813 147.282C485.264 147.335 484.732 147.505 484.249 147.784C483.766 148.063 483.343 148.443 483.007 148.902C476.48 157.423 471.702 167.27 468.971 177.825C468.366 180.17 467.892 182.795 468.999 184.928C470.106 187.061 473.482 187.85 474.66 185.759Z" fill="#101010"/>
<path d="M334.303 324.022C330.955 323.835 327.722 322.674 324.965 320.669C322.209 318.664 320.037 315.894 318.692 312.667C315.614 305.455 316.716 296.916 320.501 290.254C324.45 283.305 330.627 279.193 337.302 275.556C343.419 272.224 350.007 268.317 352.796 261.294C354.046 258.241 354.21 254.819 353.258 251.65C352.806 250.159 352.09 248.772 351.146 247.562C350.042 246.334 348.699 245.369 347.209 244.734C345.753 243.941 345.074 242.458 344.351 240.983C343.549 239.348 342.673 237.769 341.794 236.177C339.706 232.397 337.7 228.568 335.778 224.69C328.065 209.229 321.817 193.009 317.123 176.265C308.356 144.687 305.619 110.727 312.961 78.5159C316.47 63.1202 322.2 48.0375 330.644 34.8731C338.427 22.7402 349.105 12.0179 362.473 7.16987C375.322 2.51017 391.029 2.96389 402.034 12.1851C411.073 19.7589 416.385 33.0032 413.934 45.0613C413.341 47.9854 412.281 50.7829 410.798 53.3352L413.418 54.4952C419.807 36.4375 441.236 29.6529 457.754 34.592C477.947 40.6297 488.662 63.4118 489.588 84.0753C490.724 109.429 478.017 132.801 463.063 151.699C447.666 171.018 429.659 187.864 409.616 201.702C389.679 215.569 367.964 226.382 345.124 233.815C342.297 234.731 339.455 235.593 336.598 236.402C336.243 236.519 335.945 236.776 335.767 237.119C335.589 237.462 335.545 237.864 335.644 238.24C335.743 238.617 335.977 238.938 336.297 239.137C336.617 239.336 336.998 239.396 337.36 239.305C361.393 232.457 384.339 221.936 405.462 208.081C426.63 194.251 445.728 177.199 462.132 157.48C478.076 138.224 492.245 114.515 492.525 88.1792C492.755 66.5166 483.081 42.2427 463.037 33.3675C446.398 26.0002 423.883 30.7392 413.703 47.2192C412.463 49.2536 411.441 51.4252 410.654 53.6948C410.074 55.3339 412.454 56.2696 413.273 54.8548C419.759 43.6456 418.021 29.153 411.312 18.5041C403.68 6.38912 390.192 0.701156 376.634 1.29022C345.158 2.65781 324.978 32.5264 315.034 60.8918C303.811 92.9048 303.639 128.258 310.531 161.318C314.26 178.866 319.733 195.954 326.859 212.301C330.447 220.617 334.411 228.738 338.752 236.665C339.669 238.341 340.65 239.983 341.49 241.705C342.141 243.304 343.025 244.787 344.11 246.1C345.291 247.335 346.972 247.614 348.228 248.698C349.509 249.93 350.387 251.555 350.736 253.342C352.583 261.315 345.501 267.363 339.685 270.81C336.065 272.955 332.242 274.728 328.767 277.139C325.723 279.224 323.003 281.789 320.702 284.743C316.035 290.817 313.376 298.522 314.201 306.376C314.527 310.031 315.67 313.554 317.537 316.658C319.403 319.761 321.941 322.358 324.943 324.238C327.793 325.973 331.01 326.934 334.303 327.033C336.148 327.089 336.146 324.078 334.303 324.022Z" fill="#BD2828"/>
<path d="M205.942 303.119L219.317 227.846L261.352 223.832L288.947 305.743L205.942 303.119Z" fill="#A0616A"/>
<path d="M503.058 233.868L468.665 313.156L548.437 321.92L569.933 225.839L503.058 233.868Z" fill="#FFB6B6"/>
<path d="M625.002 546.223L617.979 554.459L583.725 529.287L594.089 517.132L625.002 546.223Z" fill="#FFB6B6"/>
<path d="M615.28 584.421C616.21 585.295 617.432 585.745 618.678 585.674C619.924 585.602 621.092 585.014 621.926 584.039L635.887 567.663L632.736 559.619L639.226 563.74L644.498 557.565L623.204 540.655L621.251 542.693L613.266 550.991L610.695 553.672L616.305 558.952L613.752 580.121C613.656 580.914 613.745 581.72 614.012 582.469C614.278 583.218 614.713 583.888 615.28 584.421Z" fill="#101010"/>
<path d="M488.608 621.278L478.09 621.687L471.55 578.312L487.073 577.709L488.608 621.278Z" fill="#FFB6B6"/>
<path d="M455.69 640.45C455.738 641.759 456.278 642.996 457.192 643.888C458.106 644.78 459.319 645.255 460.566 645.209L481.478 644.394L484.801 636.426L486.484 644.195L494.375 643.893L491.174 616.052L488.422 615.992L477.194 615.715L473.571 615.634L473.85 623.541L457.575 636.308C456.966 636.787 456.476 637.414 456.147 638.135C455.819 638.856 455.662 639.651 455.69 640.45Z" fill="#101010"/>
<path d="M549.893 306.58H470.809L445.736 364.341C445.736 364.341 426.443 462.27 437.138 486.786C447.647 510.873 467.71 596.183 467.71 596.183L488.728 591.165L493.504 576.11C493.504 576.11 485.439 562.027 487.772 557.041C490.105 552.055 482.04 552.023 482.04 552.023C482.04 552.023 482.167 548.717 482.995 538.975C483.824 529.234 475.353 468.72 475.353 468.72L504.013 374.378L549.893 306.58Z" fill="#101010"/>
<path d="M488.562 325.767L504.969 374.378L495.465 456.061C495.157 458.712 495.488 461.402 496.428 463.883C497.368 466.364 498.886 468.558 500.844 470.261L589.04 547.004L609.103 522.917L602.635 517.133C602.635 517.133 592.123 513.537 594.881 510.198C597.638 506.859 588.051 504.09 588.051 504.09C588.051 504.09 586.487 511.073 580.598 497.424C574.71 483.775 539.279 460.47 539.279 460.47C539.279 460.47 588.085 352.298 550.848 306.58L488.562 325.767Z" fill="#101010"/>
<path d="M133.677 533.176L140.699 541.411L174.954 516.24L164.588 504.085L133.677 533.176Z" fill="#A0616A"/>
<path d="M144.927 567.073L142.373 545.904L147.983 540.625L145.412 537.943L137.427 529.646L135.474 527.607L114.18 544.518L119.452 550.693L125.942 546.572L122.791 554.616L136.753 570.992C137.422 571.776 138.313 572.316 139.295 572.531C140.277 572.747 141.298 572.627 142.211 572.19C143.124 571.752 143.879 571.02 144.368 570.1C144.856 569.179 145.052 568.119 144.927 567.073Z" fill="#101010"/>
<path d="M225.282 579.313L234.847 583.927L256.716 546.501L242.599 539.691L225.282 579.313Z" fill="#A0616A"/>
<path d="M248.458 605.694L238.086 587.348L241.229 580.157L237.854 578.773L227.383 574.506L224.818 573.454L211.702 597.878L218.88 601.335L223.27 594.838L223.431 603.535L242.447 612.71C243.359 613.149 244.381 613.271 245.363 613.058C246.345 612.844 247.237 612.307 247.908 611.523C248.579 610.74 248.994 609.752 249.093 608.703C249.192 607.655 248.97 606.6 248.458 605.694Z" fill="#101010"/>
<path d="M207.83 293.533H286.914L311.986 351.294C311.986 351.294 338.736 454.669 320.585 473.738C302.433 492.808 252.754 558.044 252.754 558.044L235.558 551.019L282.37 455.673L253.71 361.33L207.83 293.533Z" fill="#101010"/>
<path d="M270.116 312.72L253.71 361.33L263.213 443.013C263.521 445.664 263.19 448.354 262.25 450.836C261.31 453.317 259.792 455.51 257.834 457.214L173.459 518.902L161.04 503.848L219.399 447.422C219.399 447.422 170.593 339.25 207.83 293.533L270.116 312.72Z" fill="#101010"/>
<path d="M556.558 286.057L486.817 266.988C486.817 266.988 489.401 242.924 485.243 243.916C481.085 244.908 484.762 236.877 484.762 236.877C484.762 236.877 487.772 233.868 484.259 229.494C472.24 214.532 481.926 195.308 481.926 195.308C482.226 185.847 485.674 176.795 491.67 169.729C497.666 162.662 505.831 158.028 514.743 156.631L540.645 152.573C546.031 152.573 551.354 153.799 556.245 156.167C561.137 158.536 565.482 161.99 568.981 166.292C572.48 170.593 575.05 175.641 576.514 181.086C577.978 186.531 578.301 192.245 577.461 197.835L556.558 286.057Z" fill="#101010"/>
<path d="M545.094 161.606L505.924 162.609L509.745 143.54H538.406L545.094 161.606Z" fill="#101010"/>
<path d="M603.079 252.324L558.337 198.417C556.448 196.127 555.491 193.149 555.674 190.124C555.857 187.1 557.164 184.273 559.313 182.253C560.425 181.207 561.728 180.411 563.143 179.912C564.557 179.413 566.054 179.222 567.541 179.35C569.028 179.478 570.475 179.924 571.793 180.659C573.111 181.393 574.272 182.403 575.207 183.625L620.049 241.118L648.699 274.847C650.563 274.179 652.577 274.129 654.468 274.706C656.359 275.282 658.035 276.456 659.269 278.068C660.503 279.68 661.234 281.653 661.364 283.717C661.494 285.781 661.016 287.837 659.995 289.605C658.973 291.374 657.459 292.77 655.656 293.602C653.854 294.435 651.851 294.665 649.92 294.26C647.989 293.856 646.223 292.836 644.863 291.341C643.502 289.845 642.613 287.946 642.316 285.901L603.079 252.324Z" fill="#FFB6B6"/>
<path d="M562.739 213.721C562.03 213.685 561.352 213.406 560.809 212.927C560.265 212.447 559.887 211.794 559.732 211.066C559.524 210.173 559.055 209.37 558.392 208.769C558.262 208.655 558.126 208.549 557.983 208.453C557.11 207.899 556.377 207.13 555.847 206.214C555.316 205.298 555.005 204.261 554.938 203.191C554.766 199.667 552.877 195.911 550.843 192.902C548.618 189.61 546.19 186.394 544.78 182.638C542.746 177.219 543.14 170.249 549.44 167.291C552.138 166.077 555.152 165.876 557.974 166.724C563.897 168.413 568.188 173.241 572.251 177.9L571.5 175.23C575.853 180.4 581.155 184.594 587.089 187.559C585.826 188.379 586.397 190.625 587.698 191.376C589 192.127 590.584 191.913 592.068 191.874C593.939 191.824 596.158 192.294 596.468 194.69C596.527 195.265 596.472 195.847 596.306 196.399C596.141 196.951 595.869 197.461 595.506 197.898C588.832 206.291 580.577 213.145 571.26 218.026C569.19 219.109 566.832 220.112 564.624 219.39C562.417 218.667 561.018 215.344 562.739 213.721Z" fill="#101010"/>
<path d="M495.198 106.228C503.918 122.01 487.499 148.6 504.047 154.122L502.684 152.69C492.695 139.782 513.573 112.461 503.584 99.5534C502.032 97.66 500.7 95.5795 499.615 93.3557L495.198 106.228Z" fill="#101010"/>
<path d="M563.237 103.836C563.239 108.95 562.046 113.987 559.762 118.504C557.479 123.021 554.174 126.879 550.14 129.742C546.105 132.604 541.463 134.382 536.622 134.919C531.78 135.457 526.887 134.738 522.372 132.825C517.857 130.912 513.858 127.864 510.726 123.949C507.594 120.033 505.424 115.37 504.408 110.368C503.392 105.366 503.561 100.179 504.898 95.2612C506.236 90.3436 508.703 85.8462 512.081 82.1638L512.224 82.014C512.462 81.7514 512.7 81.489 512.95 81.2389L512.954 81.238L512.958 81.2353L512.961 81.2312L512.962 81.2264C513.271 80.9265 513.58 80.6265 513.901 80.3391C518.199 76.3808 523.492 73.8076 529.146 72.9276C534.799 72.0477 540.575 72.8982 545.78 75.3773C550.986 77.8565 555.401 81.8593 558.497 86.9064C561.593 91.9536 563.239 97.8312 563.237 103.836Z" fill="#101010"/>
<path d="M526.168 137.265C539.942 137.265 551.108 125.535 551.108 111.065C551.108 96.5949 539.942 84.8645 526.168 84.8645C512.394 84.8645 501.228 96.5949 501.228 111.065C501.228 125.535 512.394 137.265 526.168 137.265Z" fill="#FFB8B8"/>
<path d="M543.986 85.8737C540.123 82.075 535.318 79.4979 530.124 78.4384C524.93 77.379 519.556 77.8801 514.621 79.8843C514.494 79.9435 514.353 80.0026 514.227 80.0618C513.734 80.2688 513.241 80.5054 512.749 80.7568L512.467 80.89V80.9343L512.298 81.0674C512.182 81.1789 512.042 81.26 511.89 81.304C509.723 81.2433 507.569 81.6638 505.568 82.5379C503.567 83.412 501.763 84.7201 500.276 86.3765C496.419 90.7836 494.589 97.9116 495.152 106.43L495.166 106.696L495.392 106.844C495.462 106.888 495.518 106.933 495.589 106.977C497.56 108.264 499.432 109.402 501.248 110.408C502.346 111.029 503.416 111.591 504.485 112.109L504.866 112.286C505.274 112.493 505.696 112.686 506.104 112.878C516.409 117.61 525.911 118.35 535.033 115.17L535.202 115.111L538.271 109.713L539.242 108.012C539.453 109.225 539.58 111.133 539.721 113.321C539.879 116.738 540.241 120.141 540.804 123.511V123.54C541.368 126.528 542.24 128.938 543.676 129.737C543.89 129.88 544.13 129.975 544.38 130.018L546.661 126.853L552.657 118.542L552.756 118.054C555.191 106.504 551.672 93.5786 543.986 85.8737Z" fill="#101010"/>
<path d="M614.835 36.15C609.781 29.1106 605.147 9.235 597.728 5.1238C596.982 4.70968 596.236 4.32516 595.476 3.97025C596.219 5.83301 596.362 7.89985 595.884 9.85609C595.222 12.2519 593.533 14.1596 591.886 15.9638C587.311 21.0068 582.731 26.0448 578.147 31.0779C581.228 26.7905 583.419 21.8718 584.578 16.6396C585.737 11.4074 585.838 5.97799 584.876 0.702013C581.052 0.102293 577.158 0.222475 573.375 1.05693C565.182 2.92031 557.665 8.74694 554.413 16.866C551.64 23.7279 552.034 31.5215 552.921 38.9158C553.807 46.3101 555.173 53.7932 554.188 61.1727C553.216 68.567 549.345 76.0649 542.743 78.8155C544.207 77.8839 544.108 75.3847 542.884 74.1424C541.885 73.2423 540.593 72.7861 539.28 72.8706C538.869 72.8671 538.46 72.9017 538.055 72.9741C532.804 73.8466 528.961 78.4606 525.611 82.8085C524.764 82.9334 523.965 83.3 523.303 83.8685C522.64 84.4369 522.138 85.1853 521.852 86.0324C521.535 86.9242 521.535 87.9061 521.852 88.7979C522.964 91.7261 527.441 92.2881 529.172 89.7148C528.679 91.821 528.623 94.0142 529.009 96.1451C529.396 98.2759 530.214 100.294 531.41 102.063C532.606 103.831 534.15 105.308 535.938 106.393C537.726 107.477 539.716 108.144 541.771 108.349C547.839 108.955 557.482 109.916 561.494 105.08C567.758 97.5084 577.373 89.9218 578.386 79.9395C579.386 69.972 584.636 71.9536 586.832 62.1931C589.029 52.4179 598.052 49.046 606.541 44.4468C616.028 39.3003 606.121 29.6431 614.835 36.15Z" fill="#101010"/>
<path d="M538.082 109.371C546.802 125.153 530.382 151.743 546.93 157.265L545.567 155.833C535.578 142.925 556.456 115.605 546.467 102.697C544.915 100.803 543.583 98.7228 542.499 96.499L538.082 109.371Z" fill="#101010"/>
<path d="M551.591 117.809C551.591 117.809 544.203 88.838 512.533 82.1514C512.498 82.1391 512.379 82.089 512.224 82.0141C512.129 81.9516 512.01 81.889 511.891 81.8266C512.248 81.6141 512.593 81.4268 512.95 81.2391L512.954 81.2382L512.958 81.2355L512.961 81.2314L512.962 81.2266C513.271 80.9266 513.58 80.6267 513.901 80.3393L514.806 80.3768C514.806 80.3768 546.582 75.0901 551.591 117.809Z" fill="#BD2828"/>
<path d="M274.828 248.819L246.567 176.488C245.378 173.42 245.386 169.983 246.587 166.921C247.789 163.858 250.089 161.415 252.99 160.118C254.491 159.447 256.106 159.104 257.738 159.11C259.369 159.116 260.982 159.472 262.478 160.154C263.974 160.836 265.323 161.832 266.441 163.08C267.559 164.327 268.423 165.801 268.982 167.411L296.145 243.491L314.505 288.989C316.658 288.987 318.759 289.68 320.523 290.976C322.288 292.271 323.63 294.106 324.367 296.23C325.104 298.355 325.201 300.666 324.644 302.851C324.088 305.035 322.904 306.987 321.255 308.44C319.606 309.893 317.571 310.778 315.426 310.974C313.282 311.17 311.132 310.667 309.268 309.535C307.405 308.403 305.919 306.695 305.012 304.644C304.104 302.594 303.82 300.299 304.197 298.073L274.828 248.819Z" fill="#A0616A"/>
<path d="M245.999 193.955C245.277 193.656 244.669 193.117 244.267 192.42C243.865 191.723 243.693 190.906 243.775 190.096C243.859 189.094 243.643 188.09 243.157 187.223C243.062 187.057 242.956 186.897 242.84 186.746C242.122 185.849 241.621 184.783 241.379 183.638C241.137 182.494 241.161 181.306 241.45 180.174C242.452 176.462 241.755 171.877 240.657 168.011C239.457 163.781 238.02 159.555 237.818 155.146C237.528 148.786 240.27 141.717 247.781 140.983C250.98 140.723 254.166 141.63 256.804 143.55C262.369 147.487 265.193 154.07 267.839 160.394L267.956 157.353C270.73 164.313 274.814 170.613 279.962 175.874C278.381 176.257 278.22 178.793 279.315 180.051C280.411 181.309 282.122 181.673 283.671 182.181C285.624 182.821 287.764 184.126 287.283 186.721C287.151 187.339 286.899 187.921 286.543 188.431C286.187 188.941 285.734 189.368 285.214 189.686C275.494 195.908 264.655 199.95 253.377 201.56C250.872 201.916 248.096 202.083 246.052 200.519C244.009 198.956 243.675 194.999 245.999 193.955Z" fill="#E6E6E6"/>
<path d="M275.683 265.984L212.447 266.818C212.447 266.818 205.356 266.49 205.356 261.99C205.356 257.489 209.32 256.547 204.125 253.08C198.929 249.612 196.787 251.863 197.858 246.237C198.929 240.611 200 238.75 200 237.43C200 236.11 198.929 230.484 198.929 224.858C198.929 222.13 207.27 217.178 205.195 201.194C202.667 181.72 203.554 151.918 221.422 146.093L234.275 122.463H258.775L266.407 146.093L275.454 158.548C275.454 158.548 293.3 182.256 287.945 194.633C282.589 207.01 275.683 265.984 275.683 265.984Z" fill="#E6E6E6"/>
<path d="M332.389 153.886L260.884 175.575C257.852 176.485 254.601 176.105 251.833 174.519C249.065 172.933 247.001 170.267 246.088 167.096C245.615 165.456 245.466 163.732 245.648 162.029C245.83 160.326 246.341 158.68 247.149 157.191C247.956 155.702 249.044 154.402 250.346 153.369C251.648 152.336 253.136 151.593 254.72 151.184L329.653 131.046L374.695 116.793C374.925 114.545 375.808 112.425 377.225 110.723C378.642 109.02 380.523 107.817 382.613 107.277C384.704 106.737 386.902 106.886 388.909 107.704C390.915 108.521 392.634 109.968 393.831 111.848C395.028 113.728 395.645 115.949 395.598 118.21C395.551 120.471 394.844 122.662 393.57 124.485C392.297 126.308 390.52 127.676 388.482 128.402C386.443 129.127 384.241 129.176 382.175 128.541L332.389 153.886Z" fill="#A0616A"/>
<path d="M277.352 178.058C276.991 178.779 276.415 179.357 275.712 179.701C275.009 180.045 274.217 180.137 273.459 179.963C272.521 179.767 271.547 179.884 270.674 180.298C270.506 180.38 270.344 180.473 270.188 180.577C269.261 181.23 268.198 181.639 267.089 181.767C265.98 181.896 264.858 181.742 263.818 181.318C260.415 179.87 256 180.103 252.223 180.83C248.09 181.626 243.936 182.67 239.742 182.403C233.691 182.019 227.299 178.391 227.417 170.467C227.517 167.098 228.72 163.868 230.822 161.321C235.15 155.935 241.685 153.697 247.955 151.619L245.09 151.168C251.977 149.023 258.38 145.439 263.916 140.632C264.107 142.325 266.489 142.768 267.798 141.759C269.107 140.751 269.637 139.004 270.285 137.44C271.102 135.47 272.569 133.376 274.973 134.16C275.543 134.364 276.066 134.69 276.511 135.117C276.955 135.544 277.31 136.063 277.554 136.642C282.39 147.465 285.043 159.223 285.347 171.176C285.413 173.83 285.27 176.748 283.569 178.713C281.869 180.677 278.088 180.598 277.352 178.058Z" fill="#E6E6E6"/>
<path d="M242.253 126.702C258.028 126.702 270.816 113.268 270.816 96.6958C270.816 80.1236 258.028 66.6892 242.253 66.6892C226.478 66.6892 213.69 80.1236 213.69 96.6958C213.69 113.268 226.478 126.702 242.253 126.702Z" fill="#A0616A"/>
<path d="M220.182 74.5119C220.476 71.8115 222.238 68.4738 223.464 66.08C224.689 63.6862 227.056 61.7313 229.638 61.8981C230.693 62.0266 231.703 62.4213 232.582 63.0485C233.46 63.6758 234.182 64.517 234.684 65.5004C235.669 67.4803 236.207 69.6726 236.253 71.9065C236.523 76.8906 235.731 81.8751 233.934 86.4967C232.138 91.1183 229.382 95.2605 225.868 98.6213C223.867 100.507 221.457 102.186 218.769 102.25C217.548 102.219 216.345 101.932 215.232 101.406C214.118 100.88 213.116 100.125 212.284 99.1856C207.932 94.6074 207.274 87.0808 209.598 81.0893C211.922 75.0979 212.959 72.7665 218.272 69.4937" fill="#101010"/>
<path d="M260.307 117.669C259.83 120.338 264.224 133.034 262.82 135.323C262.82 135.323 248.278 140.629 242.718 141.01C235.925 141.472 230.462 138.544 224.109 134.138C223.994 131.748 223.335 129.422 222.189 127.354C222.285 128.956 221.975 130.556 221.291 131.991C211.985 124.202 208.493 102.785 217.693 92.8393L227.246 69.7556C224.38 70.7592 233.032 55.2521 242.156 66.4828C253.572 54.2685 275.689 71.8522 278.459 87.5593C275.793 84.014 274.404 84.432 273.72 86.8769C272.934 84.8205 271.689 82.9927 270.09 81.5475C270.886 83.1987 271.292 85.0264 271.275 86.8768C253.266 88.0511 256.618 100.814 271.379 119.934C265.92 116.364 269.604 131.746 266.689 135.423C266.546 132.854 260.823 120.168 260.307 117.669Z" fill="#101010"/>
<path d="M234.319 93.0862C234.089 93.086 233.866 92.9982 233.693 92.8392C233.519 92.6802 233.406 92.4605 233.374 92.2208C233.342 91.9811 233.394 91.7373 233.52 91.5345C233.646 91.3317 233.837 91.1835 234.059 91.1172C234.309 90.683 234.206 88.8555 234.124 87.379C233.813 81.8349 233.293 72.5562 241.868 66.2927C241.971 66.217 242.087 66.1634 242.21 66.1349C242.333 66.1064 242.459 66.1037 242.583 66.1269C242.707 66.15 242.825 66.1986 242.931 66.2698C243.037 66.341 243.128 66.4335 243.2 66.5418C243.272 66.6502 243.322 66.7724 243.349 66.9014C243.376 67.0305 243.378 67.1637 243.355 67.2936C243.333 67.4236 243.286 67.5475 243.218 67.6585C243.15 67.7695 243.062 67.8652 242.959 67.9403C235.264 73.5617 235.725 81.806 236.031 87.2609C236.206 90.3796 236.332 92.6324 234.532 93.0612C234.462 93.0779 234.391 93.0863 234.319 93.0862Z" fill="#BD2828"/>
<path d="M234.765 84.4517C228.934 86.9939 222.723 88.4399 216.416 88.7236C211.413 88.9464 205.444 87.7744 203.41 82.9674C202.176 80.0511 202.833 76.6329 203.962 73.67C205.091 70.7071 206.675 67.9078 207.328 64.7912C208.736 58.0771 205.413 50.9619 200.313 46.6535C195.213 42.3451 188.632 40.4439 182.14 39.5795C187.017 37.6783 191.97 35.759 197.154 35.303C202.339 34.8469 207.876 36.0309 211.747 39.6827C215.936 43.6346 217.545 49.7724 218.258 55.6394C218.97 61.5065 219.007 67.549 220.9 73.1192C222.794 78.6894 227.142 83.8769 232.753 84.3709" fill="#101010"/>
<path d="M677.294 526.701C677.505 524.81 677.36 522.893 676.866 521.061C676.372 519.229 675.54 517.517 674.416 516.023C673.293 514.529 671.9 513.282 670.318 512.353C668.736 511.424 666.995 510.832 665.195 510.61C665.161 510.606 665.127 510.604 665.094 510.6L665.094 510.597L665.091 510.599L665.103 510.493L665 510.481C665.208 508.518 665.033 506.532 664.484 504.643C663.936 502.755 663.026 501.004 661.811 499.498C660.595 497.992 659.1 496.762 657.416 495.885C655.732 495.008 653.896 494.501 652.019 494.396C650.142 494.291 648.265 494.589 646.502 495.274C644.738 495.958 643.127 497.013 641.766 498.375C640.405 499.737 639.323 501.376 638.587 503.193C637.85 505.009 637.475 506.965 637.483 508.939L634.469 535.914L634.57 535.927L634.572 535.925L660.351 539.103C662.248 539.588 664.221 539.643 666.141 539.265C668.06 538.888 669.881 538.086 671.482 536.913C673.084 535.741 674.431 534.224 675.433 532.463C676.435 530.702 677.069 528.738 677.294 526.701Z" fill="#BD2828"/>
<path d="M106.352 476.368C104.54 476.327 102.738 476.661 101.048 477.352C99.3592 478.042 97.816 479.075 96.5069 480.392C95.1978 481.709 94.1485 483.284 93.4188 485.027C92.6891 486.77 92.2933 488.647 92.2541 490.551C92.2533 490.586 92.2549 490.621 92.2544 490.657L92.2519 490.657L92.254 490.659L92.1525 490.657L92.1503 490.766C90.271 490.735 88.4054 491.107 86.6679 491.86C84.9304 492.613 83.3576 493.731 82.046 495.145C80.7344 496.56 79.7116 498.24 79.0403 500.085C78.3689 501.929 78.0633 503.898 78.1421 505.871C78.2208 507.843 78.6823 509.779 79.4983 511.557C80.3143 513.336 81.4675 514.921 82.8873 516.215C84.307 517.509 85.9634 518.484 87.7548 519.082C89.5462 519.679 91.4349 519.886 93.3051 519.689L119.153 520.277L119.155 520.171L119.153 520.168L119.715 492.908C119.993 490.878 119.858 488.809 119.317 486.837C118.777 484.866 117.844 483.038 116.581 481.475C115.318 479.911 113.752 478.647 111.989 477.766C110.225 476.886 108.304 476.41 106.352 476.368Z" fill="#BD2828"/>
</svg>
