<svg width="557" height="598" viewBox="0 0 557 598" fill="none" xmlns="http://www.w3.org/2000/svg">
<path fill-rule="evenodd" clip-rule="evenodd" d="M267.968 100.361C320.826 69.2504 369.207 -23.7281 423.036 5.66881C478.62 36.0238 408.014 136.52 437.15 192.753C458.486 233.932 547.887 216.275 555.832 261.968C564.02 309.053 489.455 330.469 468.572 373.457C453.438 404.612 468.323 444.004 452.448 474.788C435.608 507.444 408.381 534.698 376.241 552.502C343.463 570.658 304.885 570.554 267.968 576.976C225.017 584.448 181.539 606.519 139.895 593.618C97.9905 580.638 54.5077 549.509 42.8102 507.228C30.1357 461.417 86.5996 417.764 78.2934 370.963C70.5973 327.599 2.426 310.509 0.0913983 266.53C-2.04773 226.232 33.7421 189.905 67.5093 167.81C100.166 146.441 144.404 160.341 181.393 147.895C212.992 137.263 239.236 117.273 267.968 100.361Z" fill="#FFB6B6"/>
</svg>
