<svg width="753" height="543" viewBox="0 0 753 543" fill="none" xmlns="http://www.w3.org/2000/svg">
<path fill-rule="evenodd" clip-rule="evenodd" d="M355.043 162.487C398.611 129.865 411.378 51.4884 465.369 44.5609C502.943 39.7398 490.414 121.945 523.202 140.911C576.019 171.462 661.816 132.615 699.94 180.244C731.131 219.211 664.707 275.938 670.919 325.455C679.435 393.336 787.091 464.127 742.014 515.604C690.812 574.076 587.642 523.144 511.491 507.521C465.177 498.019 434.324 442.256 387.047 442.78C352.329 443.165 340.771 496.241 308.795 509.768C269.252 526.497 225.766 531.103 182.871 529.156C121.051 526.349 18.9835 555.423 2.29436 495.853C-17.3674 425.673 95.0095 383.772 123.325 316.613C136.503 285.357 129.576 248.635 120.278 216.015C99.0722 141.627 -40.7838 23.1194 34.0151 3.31716C135.995 -23.6811 205.392 121.602 299.901 168.461C316.647 176.764 340.082 173.69 355.043 162.487Z" fill="#FFB6B6"/>
</svg>
