<svg width="640" height="661" viewBox="0 0 640 661" fill="none" xmlns="http://www.w3.org/2000/svg">
<path fill-rule="evenodd" clip-rule="evenodd" d="M356.549 66.1227C408.413 51.7543 452.474 -14.8547 503.234 3.02508C551.858 20.1526 544.049 95.974 569.113 140.997C588.905 176.55 627.794 201.673 636.001 241.522C644.145 281.07 613.965 318.93 614.071 359.307C614.192 405.291 651.06 450.195 636.666 493.873C622.689 536.283 581.488 568.142 539.882 584.42C499.056 600.393 451.767 569.941 409.804 582.63C362.7 596.873 335.836 660.683 286.625 660.999C240.501 661.295 207.782 614.888 173.414 584.148C141.096 555.241 117.883 519.397 90.6223 485.685C59.4327 447.115 -0.73807 419.29 0.00685279 369.707C0.789502 317.612 82.5442 297.858 94.207 247.077C107.5 189.2 29.4328 117.812 68.197 72.8047C106.433 28.4111 183.499 76.7282 242.096 75.3704C280.784 74.4738 319.257 76.454 356.549 66.1227Z" fill="#FFB6B6"/>
</svg>
