<svg width="508" height="620" viewBox="0 0 508 620" fill="none" xmlns="http://www.w3.org/2000/svg">
<path fill-rule="evenodd" clip-rule="evenodd" d="M190.338 0.538022C266.56 6.25054 299.921 100.183 346.102 161.091C372.958 196.511 388.293 236.372 401.365 278.857C412.206 314.092 405.623 350.264 415.258 385.848C436.118 462.887 549.461 553.564 490.236 607.068C429.694 661.762 350.049 521.872 268.534 518.398C212.924 516.028 170.852 619.704 122.918 591.412C73.7238 562.377 131.508 477.609 109.862 424.746C91.1364 379.013 24.9967 366.371 11.3256 318.881C-5.91418 258.994 -3.46514 191.501 27.0801 137.181C62.736 73.7736 117.796 -4.8987 190.338 0.538022Z" fill="#FFB6B6"/>
</svg>
